<mxfile host="Electron" modified="2024-02-15T23:17:03.459Z" agent="Mozilla/5.0 (Windows NT 10.0; Win64; x64) AppleWebKit/537.36 (KHTML, like Gecko) draw.io/23.0.2 Chrome/120.0.6099.109 Electron/28.1.0 Safari/537.36" etag="Pfs7Sq7SErxA9_vuhvsb" version="23.0.2" type="device" pages="2">
  <diagram name="Page-1" id="sbtFq-Jo9rmZDgne4urp">
    <mxGraphModel dx="1098" dy="820" grid="1" gridSize="10" guides="1" tooltips="1" connect="1" arrows="1" fold="1" page="1" pageScale="1" pageWidth="850" pageHeight="1100" math="0" shadow="0">
      <root>
        <mxCell id="0" />
        <mxCell id="1" parent="0" />
        <mxCell id="Jt3h1me3P-TocZ8PeFPC-1" value="" style="verticalLabelPosition=bottom;verticalAlign=top;html=1;shadow=0;dashed=0;strokeWidth=1;shape=mxgraph.android.phone2;strokeColor=#c0c0c0;" parent="1" vertex="1">
          <mxGeometry x="80" y="40" width="200" height="390" as="geometry" />
        </mxCell>
        <mxCell id="Jt3h1me3P-TocZ8PeFPC-2" value="&lt;p style=&quot;line-height: 200%;&quot;&gt;&lt;font style=&quot;font-size: 18px;&quot;&gt;&lt;b&gt;LEAVE ME ALONE&lt;/b&gt;&lt;/font&gt;&lt;/p&gt;" style="text;html=1;align=center;verticalAlign=middle;resizable=0;points=[];autosize=1;strokeColor=none;fillColor=none;" parent="1" vertex="1">
          <mxGeometry x="90" y="95" width="180" height="60" as="geometry" />
        </mxCell>
        <mxCell id="Jt3h1me3P-TocZ8PeFPC-3" value="&lt;font style=&quot;font-size: 14px;&quot;&gt;Sign In&lt;/font&gt;" style="text;html=1;align=center;verticalAlign=middle;resizable=0;points=[];autosize=1;strokeColor=none;fillColor=none;" parent="1" vertex="1">
          <mxGeometry x="145" y="150" width="70" height="30" as="geometry" />
        </mxCell>
        <mxCell id="Jt3h1me3P-TocZ8PeFPC-4" value="" style="strokeWidth=1;html=1;shadow=0;dashed=0;shape=mxgraph.android.textfield;align=center;strokeColor=#999999;pointerEvents=1" parent="1" vertex="1">
          <mxGeometry x="93" y="210" width="174" height="30" as="geometry" />
        </mxCell>
        <mxCell id="Jt3h1me3P-TocZ8PeFPC-5" value="" style="strokeWidth=1;html=1;shadow=0;dashed=0;shape=mxgraph.android.textfield;align=center;strokeColor=#999999;pointerEvents=1" parent="1" vertex="1">
          <mxGeometry x="93" y="260" width="174" height="30" as="geometry" />
        </mxCell>
        <mxCell id="Jt3h1me3P-TocZ8PeFPC-7" value="User Name" style="text;html=1;align=center;verticalAlign=middle;resizable=0;points=[];autosize=1;strokeColor=none;fillColor=none;" parent="1" vertex="1">
          <mxGeometry x="140" y="190" width="80" height="30" as="geometry" />
        </mxCell>
        <mxCell id="Jt3h1me3P-TocZ8PeFPC-8" value="Password" style="text;html=1;align=center;verticalAlign=middle;resizable=0;points=[];autosize=1;strokeColor=none;fillColor=none;" parent="1" vertex="1">
          <mxGeometry x="140" y="240" width="80" height="30" as="geometry" />
        </mxCell>
        <mxCell id="Jt3h1me3P-TocZ8PeFPC-9" value="Enter" style="rounded=1;html=1;shadow=0;dashed=0;whiteSpace=wrap;fontSize=10;fillColor=#666666;align=center;strokeColor=#4D4D4D;fontColor=#ffffff;" parent="1" vertex="1">
          <mxGeometry x="127.25" y="320" width="105.5" height="16.88" as="geometry" />
        </mxCell>
        <mxCell id="Jt3h1me3P-TocZ8PeFPC-10" value="" style="verticalLabelPosition=bottom;verticalAlign=top;html=1;shadow=0;dashed=0;strokeWidth=1;shape=mxgraph.android.phone2;strokeColor=#c0c0c0;" parent="1" vertex="1">
          <mxGeometry x="490" y="40" width="200" height="390" as="geometry" />
        </mxCell>
        <mxCell id="Jt3h1me3P-TocZ8PeFPC-13" value="Alarm Type" style="text;html=1;align=center;verticalAlign=middle;resizable=0;points=[];autosize=1;strokeColor=none;fillColor=none;" parent="1" vertex="1">
          <mxGeometry x="510" y="125" width="80" height="30" as="geometry" />
        </mxCell>
        <mxCell id="Jt3h1me3P-TocZ8PeFPC-14" value="Chirp Type" style="text;html=1;align=center;verticalAlign=middle;resizable=0;points=[];autosize=1;strokeColor=none;fillColor=none;" parent="1" vertex="1">
          <mxGeometry x="510" y="160" width="80" height="30" as="geometry" />
        </mxCell>
        <mxCell id="Jt3h1me3P-TocZ8PeFPC-15" value="Delay" style="text;html=1;align=center;verticalAlign=middle;resizable=0;points=[];autosize=1;strokeColor=none;fillColor=none;" parent="1" vertex="1">
          <mxGeometry x="510" y="190" width="50" height="30" as="geometry" />
        </mxCell>
        <mxCell id="Jt3h1me3P-TocZ8PeFPC-21" value="" style="verticalLabelPosition=bottom;verticalAlign=top;html=1;shadow=0;dashed=0;strokeWidth=1;shape=mxgraph.android.switch_off;fillColor=#666666;sketch=0;" parent="1" vertex="1">
          <mxGeometry x="580" y="225" width="80" height="20" as="geometry" />
        </mxCell>
        <mxCell id="Jt3h1me3P-TocZ8PeFPC-22" value="Auto" style="text;html=1;align=center;verticalAlign=middle;resizable=0;points=[];autosize=1;strokeColor=none;fillColor=none;" parent="1" vertex="1">
          <mxGeometry x="510" y="220" width="50" height="30" as="geometry" />
        </mxCell>
        <mxCell id="Jt3h1me3P-TocZ8PeFPC-24" value="&lt;font style=&quot;font-size: 10px;&quot;&gt;EXIT&lt;br&gt;without&lt;br&gt;arming&lt;br&gt;&lt;/font&gt;" style="rounded=1;html=1;shadow=0;dashed=0;whiteSpace=wrap;fontSize=10;fillColor=#666666;align=center;strokeColor=#4D4D4D;fontColor=#ffffff;" parent="1" vertex="1">
          <mxGeometry x="140" y="780" width="80" height="50" as="geometry" />
        </mxCell>
        <mxCell id="Jt3h1me3P-TocZ8PeFPC-25" style="edgeStyle=orthogonalEdgeStyle;rounded=0;orthogonalLoop=1;jettySize=auto;html=1;exitX=1;exitY=0.5;exitDx=0;exitDy=0;entryX=0;entryY=0.241;entryDx=0;entryDy=0;entryPerimeter=0;" parent="1" source="Jt3h1me3P-TocZ8PeFPC-9" target="Jt3h1me3P-TocZ8PeFPC-10" edge="1">
          <mxGeometry relative="1" as="geometry" />
        </mxCell>
        <mxCell id="Jt3h1me3P-TocZ8PeFPC-26" value="" style="verticalLabelPosition=bottom;verticalAlign=top;html=1;shadow=0;dashed=0;strokeWidth=1;shape=mxgraph.android.phone2;strokeColor=#c0c0c0;" parent="1" vertex="1">
          <mxGeometry x="80" y="530" width="200" height="390" as="geometry" />
        </mxCell>
        <mxCell id="Jt3h1me3P-TocZ8PeFPC-30" value="&lt;font style=&quot;font-size: 14px;&quot;&gt;Disarm&lt;/font&gt;" style="rounded=1;html=1;shadow=0;dashed=0;whiteSpace=wrap;fontSize=10;fillColor=#666666;align=center;strokeColor=#4D4D4D;fontColor=#ffffff;" parent="1" vertex="1">
          <mxGeometry x="127.25" y="710" width="105.5" height="30" as="geometry" />
        </mxCell>
        <mxCell id="Jt3h1me3P-TocZ8PeFPC-32" value="" style="verticalLabelPosition=bottom;verticalAlign=top;html=1;shadow=0;dashed=0;strokeWidth=1;shape=mxgraph.android.phone2;strokeColor=#c0c0c0;" parent="1" vertex="1">
          <mxGeometry x="490" y="530" width="200" height="390" as="geometry" />
        </mxCell>
        <mxCell id="Jt3h1me3P-TocZ8PeFPC-34" value="&lt;font style=&quot;font-size: 18px;&quot;&gt;YOU HAVE&lt;/font&gt;" style="text;html=1;align=center;verticalAlign=middle;resizable=0;points=[];autosize=1;strokeColor=none;fillColor=none;" parent="1" vertex="1">
          <mxGeometry x="530" y="570" width="120" height="40" as="geometry" />
        </mxCell>
        <mxCell id="Jt3h1me3P-TocZ8PeFPC-35" value="&lt;font style=&quot;font-size: 17px;&quot;&gt;SECONDS TO&lt;br&gt;PUT ME DOWN!&lt;/font&gt;" style="text;html=1;align=center;verticalAlign=middle;resizable=0;points=[];autosize=1;strokeColor=none;fillColor=none;" parent="1" vertex="1">
          <mxGeometry x="515" y="630" width="150" height="50" as="geometry" />
        </mxCell>
        <mxCell id="Jt3h1me3P-TocZ8PeFPC-36" value="" style="strokeWidth=1;html=1;shadow=0;dashed=0;shape=mxgraph.android.textfield;align=center;strokeColor=#999999;pointerEvents=1" parent="1" vertex="1">
          <mxGeometry x="555" y="600" width="70" height="30" as="geometry" />
        </mxCell>
        <mxCell id="Jt3h1me3P-TocZ8PeFPC-37" value="&lt;font style=&quot;font-size: 14px;&quot;&gt;Disarm&lt;/font&gt;" style="rounded=1;html=1;shadow=0;dashed=0;whiteSpace=wrap;fontSize=10;fillColor=#666666;align=center;strokeColor=#4D4D4D;fontColor=#ffffff;" parent="1" vertex="1">
          <mxGeometry x="537.25" y="840" width="105.5" height="30" as="geometry" />
        </mxCell>
        <mxCell id="Jt3h1me3P-TocZ8PeFPC-38" value="" style="strokeWidth=1;html=1;shadow=0;dashed=0;shape=mxgraph.android.textfield;align=center;strokeColor=#999999;pointerEvents=1" parent="1" vertex="1">
          <mxGeometry x="503" y="800" width="174" height="30" as="geometry" />
        </mxCell>
        <mxCell id="Jt3h1me3P-TocZ8PeFPC-39" value="Enter Password" style="text;html=1;align=center;verticalAlign=middle;resizable=0;points=[];autosize=1;strokeColor=none;fillColor=none;" parent="1" vertex="1">
          <mxGeometry x="535" y="780" width="110" height="30" as="geometry" />
        </mxCell>
        <mxCell id="4_gw0AmZkJH5VeVwcSMi-1" value="SETUP" style="strokeWidth=1;html=1;shadow=0;dashed=0;shape=mxgraph.android.action_bar;fillColor=#E6E6E6;strokeColor=#c0c0c0;strokeWidth=2;whiteSpace=wrap;" vertex="1" parent="1">
          <mxGeometry x="497.5" y="70" width="185" height="30" as="geometry" />
        </mxCell>
        <mxCell id="4_gw0AmZkJH5VeVwcSMi-2" value="&lt;font style=&quot;font-size: 16px;&quot;&gt;ARM&lt;/font&gt;" style="rounded=1;html=1;shadow=0;dashed=0;whiteSpace=wrap;fontSize=10;fillColor=#666666;align=center;strokeColor=#4D4D4D;fontColor=#ffffff;" vertex="1" parent="1">
          <mxGeometry x="140" y="640" width="80" height="30" as="geometry" />
        </mxCell>
        <mxCell id="4_gw0AmZkJH5VeVwcSMi-3" value="SETUP" style="strokeWidth=1;html=1;shadow=0;dashed=0;shape=mxgraph.android.action_bar;fillColor=#E6E6E6;strokeColor=#c0c0c0;strokeWidth=2;whiteSpace=wrap;" vertex="1" parent="1">
          <mxGeometry x="87.5" y="560" width="185" height="30" as="geometry" />
        </mxCell>
      </root>
    </mxGraphModel>
  </diagram>
  <diagram id="uHZR-gzTOT964BG31ogf" name="Page-2">
    <mxGraphModel dx="1101" dy="744" grid="1" gridSize="10" guides="1" tooltips="1" connect="1" arrows="1" fold="1" page="1" pageScale="1" pageWidth="850" pageHeight="1100" math="0" shadow="0">
      <root>
        <mxCell id="0" />
        <mxCell id="1" parent="0" />
      </root>
    </mxGraphModel>
  </diagram>
</mxfile>
